<?xml version="1.0" encoding="UTF-8" standalone="no"?><svg xmlns:svg="http://www.w3.org/2000/svg" xmlns="http://www.w3.org/2000/svg" width="250" height="100" viewBox="0 0 66.145832 26.458334"><g><rect width="66.145836" height="26.458334" fill="#e6f3ff" stroke-width="2.74788" stroke-linejoin="round"/></g><g/><g transform="translate(0,-249.37498)"><g transform="translate(-2.817172,-0.19034617)"><g transform="translate(-1.0768462)"><g transform="translate(0,-0.08334101)"><rect y="258.6445" x="17.328281" height="8.4666662" width="8.4666662" ry="4.2333331" fill="#1977f3" stroke-width=".23472" stroke-linecap="round" stroke-linejoin="round"/><path d="m 22.544718,262.13265 h -0.669621 v -0.43917 c 0,-0.16487 0.109312,-0.20334 0.186304,-0.20334 0.07682,0 0.472545,0 0.472545,0 v -0.72504 l -0.65079,-0.003 c -0.722437,0 -0.886842,0.5408 -0.886842,0.88685 v 0.48331 h -0.417802 v 0.74715 h 0.417802 c 0,0.95884 0,2.11414 0,2.11414 h 0.878783 c 0,0 0,-1.16669 0,-2.11414 h 0.59298 z" fill="#fff" stroke-width=".0875895"/></g><rect ry=".39289305" y="262.40161" x="28.66321" height=".78578609" width="2.7857862" fill="#e1e1e1" stroke-width=".214214" stroke-linejoin="round"/><g transform="matrix(1.1488646,0,0,1.1488646,-5.0162137,-43.035767)"><g transform="translate(18.804315,2.6647451)"><g transform="translate(-0.26070196,0.70067699)"><g transform="matrix(0.86102719,0,0,0.86102719,4.476847,32.057087)"><rect width="21.870955" height="14.5202" x="13.564557" y="260.76822" ry=".47837946" fill="#fff" stroke="#1977f3" stroke-width=".243329" stroke-linecap="round" stroke-linejoin="round"/><path d="m 13.441758,263.45172 h 21.782465 v 0.13364 -0.0668" fill="none" stroke="#3e5b98" stroke-width=".264583"/><path d="m 13.592096,261.1769 c 0.124351,-0.20316 0.293379,-0.29482 0.668174,-0.39788 h 10.30658 l 10.473626,0.0256 0.400903,0.40302 0.116931,3.06264 H 24.566851 13.575392 Z" fill="#1977f3" stroke-width=".0815901" stroke-linecap="round" stroke-linejoin="round"/><rect ry="0" y="266.58337" x="15.288326" height="1.3275393" width="12.289192" fill="#e1e1e1" stroke-width=".0747098" stroke-linecap="round" stroke-linejoin="round"/><rect ry="0" y="268.90109" x="15.290036" height=".713328" width="9.8323469" fill="#e1e1e1" stroke-width=".0489853" stroke-linecap="round" stroke-linejoin="round"/><rect ry="0" y="270.60788" x="15.307755" height=".713328" width="9.8323469" fill="#e1e1e1" stroke-width=".0489853" stroke-linecap="round" stroke-linejoin="round"/></g></g></g></g></g></g></g></svg>