<?xml version="1.0" encoding="UTF-8" standalone="no"?><svg xmlns:svg="http://www.w3.org/2000/svg" xmlns="http://www.w3.org/2000/svg" xmlns:xlink="http://www.w3.org/1999/xlink" width="250" height="100" viewBox="0 0 66.145831 26.458334"><g><rect width="7.302536" height="29.455061" x="9.6622086" y="2.2172925" ry="1.3942424" fill="#fff" stroke="#aaa" stroke-width=".0943827" stroke-linecap="round" stroke-linejoin="round"/><text style="line-height:3.23681px" x="11.368866" y="6.7070475" font-size="2.22357" font-family="sans-serif" letter-spacing="0" word-spacing="0" stroke-width=".151606"><tspan x="11.368866" y="6.7070475" style="-inkscape-font-specification:'Arial Bold'" font-weight="bold" font-size="3.43643" font-family="Arial">52</tspan></text><text style="line-height:2.20691px" x="10.450423" y="9.2824392" font-size="1.51606" font-family="sans-serif" letter-spacing="0" word-spacing="0" fill="#b8b8b8" stroke-width=".151606"><tspan x="10.450423" y="9.2824392" letter-spacing="-.109157">SHARES</tspan></text><g transform="matrix(0.57300257,0,0,0.57300257,4.5896392,-0.67832826)"><path d="m 11.358729,31.201099 v 1.887738 0.33383 3.214791 c -0.0097,0.07138 -0.01654,0.143949 -0.01654,0.218075 v 0.618051 c 0,0.883777 0.711474,1.595252 1.595251,1.595252 h 1.135848 c 0.111964,0 0.221259,-0.01185 0.326596,-0.03359 h 2.413288 0.626319 1.887223 v -1.887738 -0.45062 -3.608049 c 0,-1.045723 -0.841497,-1.887738 -1.887223,-1.887738 h -3.683496 -0.509529 z" fill="#1da1f2" stroke-width=".264583" stroke-linecap="round" stroke-linejoin="round"/><path d="m 17.342651,34.16554 c -0.146882,0.06531 -0.304957,0.109328 -0.470818,0.129037 0.169349,-0.101379 0.299198,-0.261971 0.360433,-0.453539 -0.158399,0.094 -0.333749,0.162209 -0.520535,0.199031 -0.149478,-0.15929 -0.362542,-0.25889 -0.598315,-0.25889 -0.45265,0 -0.819652,0.367001 -0.819652,0.819732 0,0.06416 0.0072,0.126688 0.02125,0.186793 -0.681285,-0.03427 -1.285359,-0.360516 -1.68967,-0.856477 -0.07056,0.121004 -0.110952,0.261809 -0.110952,0.412172 0,0.284361 0.144692,0.535303 0.36465,0.682262 -0.134311,-0.0046 -0.260754,-0.04121 -0.371302,-0.102596 -8e-5,0.0031 -8e-5,0.0069 -8e-5,0.0104 0,0.397093 0.282572,0.728326 0.657604,0.803758 -0.06878,0.01872 -0.141206,0.02873 -0.215984,0.02873 -0.05288,0 -0.104221,-0.0054 -0.154263,-0.01479 0.104382,0.325642 0.407068,0.562713 0.765716,0.569291 -0.280543,0.219873 -0.63392,0.350935 -1.018036,0.350935 -0.0661,0 -0.131391,-0.0039 -0.195545,-0.01155 0.362866,0.232697 0.793698,0.368303 1.256568,0.368303 1.507832,0 2.332269,-1.249025 2.332269,-2.332269 0,-0.03551 -7.13e-4,-0.07093 -0.0023,-0.10617 0.160101,-0.115335 0.299116,-0.259776 0.408934,-0.42418 z" fill="#fff" stroke-width=".0811055"/></g><g transform="matrix(0.57300257,0,0,0.57300257,4.6087059,-0.37511445)"><path d="m 11.325454,41.293426 v 1.887739 0.33383 3.214791 c -0.0097,0.07138 -0.01654,0.143949 -0.01654,0.218075 v 0.61805 c 0,0.883777 0.711474,1.595253 1.595251,1.595253 h 1.135848 c 0.111964,0 0.221258,-0.01185 0.326595,-0.03359 h 2.413289 0.626319 1.887223 v -1.887739 -0.45062 -3.608049 c 0,-1.045723 -0.841497,-1.887739 -1.887223,-1.887739 H 13.72272 13.21319 Z" fill="#cb2027" stroke-width=".264583" stroke-linecap="round" stroke-linejoin="round"/><path d="m 17.368577,45.144413 c 0,1.096206 -0.888167,1.984373 -1.984373,1.984373 -0.204838,0 -0.401676,-0.03121 -0.58731,-0.08882 0.08081,-0.132025 0.201637,-0.348065 0.246446,-0.520098 0.02401,-0.09282 0.123223,-0.472088 0.123223,-0.472088 0.06481,0.123222 0.253648,0.228043 0.454485,0.228043 0.598513,0 1.029794,-0.550504 1.029794,-1.234633 0,-0.655323 -0.5353,-1.145816 -1.22343,-1.145816 -0.856161,0 -1.311447,0.574509 -1.311447,1.201026 0,0.291255 0.155229,0.653724 0.402476,0.768945 0.0376,0.0176 0.05761,0.0096 0.06641,-0.02641 0.0064,-0.0272 0.04001,-0.162431 0.05521,-0.224843 0.0048,-0.02 0.0024,-0.0376 -0.0136,-0.05681 -0.08082,-0.100019 -0.146428,-0.282453 -0.146428,-0.452886 0,-0.437682 0.331262,-0.860961 0.896168,-0.860961 0.487292,0 0.828956,0.332062 0.828956,0.807351 0,0.536902 -0.271251,0.908971 -0.624117,0.908971 -0.194436,0 -0.340864,-0.16083 -0.293655,-0.358467 0.05601,-0.236045 0.164031,-0.490492 0.164031,-0.660924 0,-0.152029 -0.08162,-0.279253 -0.251248,-0.279253 -0.199237,0 -0.359268,0.205639 -0.359268,0.481691 0,0.176033 0.05921,0.294455 0.05921,0.294455 0,0 -0.196037,0.830557 -0.232044,0.985786 -0.04001,0.171232 -0.02401,0.412877 -0.0072,0.569707 -0.737738,-0.288854 -1.261037,-1.00739 -1.261037,-1.848348 0,-1.096206 0.888167,-1.984373 1.984373,-1.984373 1.096207,0 1.984374,0.888167 1.984374,1.984373 z" fill="#fff" stroke-width=".0080015"/></g><g transform="matrix(0.57300257,0,0,0.57300257,4.5321303,-0.37511445)"><path d="m 11.459093,19.917237 v 1.887739 0.33383 3.214791 c -0.0097,0.07138 -0.01654,0.143949 -0.01654,0.218075 v 0.61805 c 0,0.883777 0.711474,1.595253 1.595251,1.595253 h 1.135848 c 0.111964,0 0.221258,-0.01185 0.326595,-0.03359 h 2.413289 0.626319 1.887223 v -1.887739 -0.45062 -3.608049 c 0,-1.045723 -0.841498,-1.887739 -1.887223,-1.887739 h -3.683496 -0.50953 z" fill="#1977f3" stroke-width=".264583" stroke-linecap="round" stroke-linejoin="round"/><path d="M 16.330206,23.439423 H 15.72033 v -0.399992 c 0,-0.150216 0.09956,-0.18524 0.16968,-0.18524 0.06996,0 0.430385,0 0.430385,0 v -0.660376 l -0.592727,-0.0024 c -0.657983,0 -0.80772,0.492536 -0.80772,0.807728 v 0.440184 h -0.380525 v 0.680488 h 0.380525 c 0,0.873296 0,1.925519 0,1.925519 h 0.800382 c 0,0 0,-1.0626 0,-1.925519 h 0.540074 z" fill="#fff" stroke-width=".0797748"/></g><g transform="translate(0,-0.43296254)"><rect width="40.207054" height="3.8639438" x="20.78871" y="6.7749071" fill="#efefef" stroke-width=".33238" stroke-linecap="round" stroke-linejoin="round"/><rect width="34.893513" height="2.1166666" x="20.78871" y="14.155029" fill="#efefef" stroke-width=".229175" stroke-linecap="round" stroke-linejoin="round"/><rect width="23.743216" height="2.1166666" x="20.78871" y="19.56723" fill="#efefef" stroke-width=".189045" stroke-linecap="round" stroke-linejoin="round"/></g></g></svg>