<?xml version="1.0" encoding="UTF-8" standalone="no"?><svg xmlns:svg="http://www.w3.org/2000/svg" xmlns="http://www.w3.org/2000/svg" viewBox="0 0 66.145832 26.458334" height="100" width="250"><g><rect height="26.458334" width="66.145836" fill="#f5ffe3" stroke-width="2.74788" stroke-linejoin="round"/></g><g><rect ry="2.6458333" y="3.8742559" x="11.43378" height="18.709822" width="43.278275" fill="#fff" stroke="#d3f693" stroke-width=".26458333" stroke-linejoin="round"/><path d="M 7.6166032,9.864467 7.1603774,10.127869 6.8969754,9.6716435 C 6.8607554,9.6089086 6.7797999,9.5872195 6.7170679,9.6234378 L 6.4889554,9.7551387 c -0.062731,0.036218 -0.084426,0.1171711 -0.048206,0.1799068 l 0.263402,0.4562255 -0.4562257,0.263402 c -0.062731,0.03622 -0.084426,0.117171 -0.048206,0.179907 l 0.1317005,0.228112 c 0.03622,0.06273 0.117176,0.08442 0.1799073,0.04821 l 0.4562257,-0.263402 0.2634015,0.456225 c 0.03622,0.06273 0.117176,0.08442 0.1799073,0.04821 l 0.2281125,-0.1317 c 0.062731,-0.03622 0.084427,-0.117172 0.048206,-0.179908 L 7.4237794,10.584095 7.8800052,10.320693 c 0.062731,-0.03622 0.084426,-0.117171 0.048205,-0.179908 L 7.7965099,9.912673 C 7.7602899,9.8499381 7.6793344,9.8282491 7.6166032,9.864467 Z M 4.9627433,11.852898 C 5.4667302,11.561921 5.6393678,10.91763 5.3483913,10.413644 5.0574144,9.9096569 4.4131227,9.7370194 3.9091357,10.027996 c -0.5039869,0.290977 -0.6766244,0.935269 -0.3856475,1.439256 0.2909765,0.503986 0.9352681,0.676623 1.4392551,0.385646 z m 0.7704176,-0.140649 -0.1190466,0.06873 C 5.4978409,11.94506 5.345637,12.088061 5.1602953,12.195068 4.9749535,12.302075 4.775722,12.361976 4.5747752,12.381043 l -0.1190467,0.06873 c -0.5289361,0.305381 -0.7103116,0.98228 -0.4049296,1.511217 l 0.1712115,0.296547 c 0.109065,0.188907 0.3508146,0.253683 0.539721,0.144618 l 2.5092407,-1.448711 c 0.1889065,-0.109065 0.253683,-0.350814 0.144618,-0.539721 L 7.2443786,12.117178 C 6.9389966,11.588241 6.2620978,11.406867 5.7331609,11.712249 Z" fill="#d2f593" stroke-width=".00823133"/><path fill="#d2f593" d="m 63.417162,18.308187 -0.456226,-0.263402 0.263402,-0.456226 c 0.03622,-0.06273 0.01452,-0.143687 -0.04821,-0.179904 l -0.228113,-0.131701 c -0.06273,-0.03622 -0.143688,-0.01453 -0.179908,0.0482 l -0.263402,0.456225 -0.456226,-0.263402 c -0.06273,-0.03622 -0.143688,-0.01453 -0.179909,0.0482 l -0.1317,0.228112 c -0.03622,0.06273 -0.01452,0.143687 0.0482,0.179909 l 0.456226,0.263402 -0.263402,0.456225 c -0.03622,0.06273 -0.01452,0.143687 0.0482,0.17991 l 0.228112,0.1317 c 0.06273,0.03622 0.143688,0.01453 0.179909,-0.0482 l 0.263408,-0.456228 0.456226,0.263402 c 0.06273,0.03622 0.143688,0.01453 0.179905,-0.04821 l 0.131701,-0.228111 c 0.03622,-0.06273 0.01452,-0.143688 -0.0482,-0.179909 z M 60.3682,17.004092 c 0.503987,0.290977 1.148278,0.118341 1.439255,-0.385646 0.290977,-0.503987 0.11834,-1.148279 -0.385647,-1.439256 -0.503987,-0.290976 -1.148279,-0.118339 -1.439256,0.385648 -0.290977,0.503986 -0.118339,1.148277 0.385648,1.439254 z m 0.507015,0.596877 -0.119046,-0.06873 c -0.200234,-0.01865 -0.400179,-0.07897 -0.585521,-0.185975 -0.185342,-0.107007 -0.336833,-0.249596 -0.453819,-0.414087 l -0.119045,-0.06873 c -0.528936,-0.305382 -1.205835,-0.124007 -1.511217,0.40493 l -0.171212,0.296546 c -0.109066,0.188907 -0.04429,0.430656 0.144618,0.539721 l 2.509241,1.448711 c 0.188906,0.109065 0.430655,0.04429 0.539721,-0.144617 l 0.171209,-0.296547 c 0.305382,-0.528937 0.124008,-1.205835 -0.404929,-1.511217 z" stroke-width=".00823132"/></g><g transform="translate(0,-249.37498)"><g transform="translate(0.13363476,-3.4076865)"><g transform="translate(18.804315,2.6647451)"><g transform="translate(-0.26070196,0.70067699)"><rect y="261.29364" x="-.76233125" height="6.9610958" width="6.9610958" fill="#1977f3" stroke-width=".192981" stroke-linecap="round" stroke-linejoin="round"/><rect y="261.29364" x="7.0226383" height="6.9610958" width="6.9610958" fill="#1da1f2" stroke-width=".192981" stroke-linecap="round" stroke-linejoin="round"/><rect y="261.29364" x="14.807609" height="6.9610958" width="6.9610958" fill="#cb2027" stroke-width=".192981" stroke-linecap="round" stroke-linejoin="round"/><rect y="261.29364" x="22.592573" height="6.9610958" width="6.9610958" stroke-width=".192981" stroke-linecap="round" stroke-linejoin="round"/><path d="m 3.4978759,264.49262 h -0.505132 v -0.33129 c 0,-0.12437 0.08246,-0.15339 0.140539,-0.15339 0.05795,0 0.356467,0 0.356467,0 V 263.461 l -0.490927,-0.002 c -0.544974,0 -0.668994,0.40796 -0.668994,0.669 v 0.36459 h -0.315171 v 0.56362 h 0.315171 c 0,0.7233 0,1.59481 0,1.59481 h 0.662915 c 0,0 0,-0.8801 0,-1.59481 h 0.447317 z" fill="#fff" stroke-width=".0660735"/><path d="m 12.110213,264.12525 c -0.113986,0.0505 -0.236647,0.0849 -0.365357,0.10009 0.131427,-0.0786 0.232179,-0.2033 0.279699,-0.35195 -0.122919,0.073 -0.258991,0.12583 -0.403941,0.15452 -0.115991,-0.12355 -0.281335,-0.2009 -0.464298,-0.2009 -0.351259,0 -0.636057,0.2848 -0.636057,0.63611 0,0.0499 0.0055,0.0983 0.01648,0.14491 -0.528685,-0.0266 -0.9974508,-0.27977 -1.3112008,-0.66463 -0.05475,0.0939 -0.0861,0.20316 -0.0861,0.31985 0,0.22065 0.112291,0.41539 0.282972,0.52944 -0.104238,-0.005 -0.202347,-0.0319 -0.288135,-0.0795 -6.2e-5,0.002 -6.2e-5,0.005 -6.2e-5,0.008 0,0.30813 0.219279,0.56517 0.510308,0.62372 -0.05337,0.0147 -0.109569,0.0223 -0.167605,0.0223 -0.04103,0 -0.08088,-0.003 -0.119708,-0.0114 0.08101,0.2527 0.31589,0.43668 0.594203,0.44176 -0.217704,0.17065 -0.491926,0.27234 -0.790005,0.27234 -0.0513,0 -0.101957,-0.003 -0.151737,-0.01 0.281588,0.18058 0.615918,0.28581 0.975109,0.28581 1.1700908,0 1.8098618,-0.96925 1.8098618,-1.80988 0,-0.0275 -5.41e-4,-0.0551 -0.0016,-0.0823 0.124239,-0.0895 0.232119,-0.20158 0.317337,-0.32916 z" fill="#fff" stroke-width=".0629387"/><path d="m 26.400268,265.29584 c -0.255664,0 -1.57286,-0.98062 -1.57286,-0.98062 v -0.10775 c 0,-0.13333 0.117295,-0.24184 0.262078,-0.24184 h 2.621565 c 0.144924,0 0.262206,0.10839 0.262206,0.24184 l -0.002,0.12095 c 0,0 -1.302929,0.96745 -1.570898,0.96745 z m 0,0.33257 c 0.280274,0 1.570897,-0.93722 1.570897,-0.93722 l 0.002,1.45119 c 0,0.13334 -0.117295,0.24186 -0.262208,0.24186 h -2.621578 c -0.144647,0 -0.262077,-0.10839 -0.262077,-0.24186 l 0.002,-1.45119 c -1.3e-4,0 1.315101,0.93722 1.570765,0.93722 z" clip-rule="evenodd" fill="#fff" fill-rule="evenodd" stroke-width=".125821"/><path d="m 20.0955,265.00612 c 0,0.85453 -0.692367,1.54691 -1.546909,1.54691 -0.159675,0 -0.313125,-0.0243 -0.457835,-0.0693 0.063,-0.10285 0.157181,-0.27134 0.192115,-0.40544 0.01871,-0.0724 0.09606,-0.36801 0.09606,-0.36801 0.05053,0.096 0.197731,0.17775 0.354291,0.17775 0.466569,0 0.802772,-0.42913 0.802772,-0.96245 0,-0.51086 -0.417291,-0.89321 -0.95372,-0.89321 -0.667416,0 -1.022331,0.44786 -1.022331,0.93626 0,0.22704 0.120995,0.5096 0.313748,0.59942 0.02932,0.0147 0.04492,0.008 0.05177,-0.0205 0.0051,-0.0212 0.03118,-0.12665 0.04303,-0.17527 0.0037,-0.0163 0.0018,-0.0292 -0.01059,-0.0443 -0.06302,-0.0779 -0.114149,-0.22018 -0.114149,-0.35304 0,-0.34119 0.258233,-0.67117 0.698603,-0.67117 0.379865,0 0.646209,0.25887 0.646209,0.62937 0,0.41854 -0.211452,0.7086 -0.486528,0.7086 -0.151574,0 -0.265718,-0.12535 -0.228916,-0.27947 0.04365,-0.18399 0.127874,-0.38234 0.127874,-0.51519 0,-0.1185 -0.06364,-0.2177 -0.19586,-0.2177 -0.155323,0 -0.280067,0.16023 -0.280067,0.3755 0,0.13725 0.04616,0.22954 0.04616,0.22954 0,0 -0.152813,0.64745 -0.180888,0.76848 -0.03118,0.1335 -0.01871,0.32184 -0.0055,0.44409 -0.575101,-0.22517 -0.983035,-0.7853 -0.983035,-1.44085 0,-0.85455 0.692366,-1.54693 1.546908,-1.54693 0.854544,0 1.546911,0.69238 1.546911,1.54693 z" fill="#fff" stroke-width=".00623753"/><text y="259.18231" x="-.99702764" style="line-height:5.64885px" font-size="2.82222" font-family="sans-serif" letter-spacing="0" word-spacing="0" stroke-width=".264583"><tspan y="259.18231" x="-.99702764">Follow me</tspan></text></g></g></g></g></svg>