<?xml version="1.0" encoding="UTF-8" standalone="no"?><svg xmlns:svg="http://www.w3.org/2000/svg" xmlns="http://www.w3.org/2000/svg" xmlns:xlink="http://www.w3.org/1999/xlink" width="250" height="100" viewBox="0 0 66.145831 26.458334"><defs><linearGradient gradientTransform="matrix(0.40787959,0,0,0.40787959,222.89883,60.054912)" gradientUnits="userSpaceOnUse" y2="136.7173" x2="103.37641" y1="202.65385" x1="103.37641" id="b" xlink:href="#a"/><linearGradient id="a"><stop offset="0" stop-color="#fea"/><stop offset="1" stop-color="#fff"/><stop offset="1" stop-color="#fff"/></linearGradient></defs><g><g transform="matrix(0.52889495,0,0,0.52889495,20.111462,-537.22485)"><g transform="matrix(1.8907346,0,0,1.8907346,-72.523505,515.64983)"><g transform="matrix(0.17124911,0,0,0.17124911,-1.8015174,256.22838)"><g transform="translate(1.5332369,1.2635392e-4)"><g transform="matrix(3.0884537,0,0,3.0884537,238.504,-3087.4737)"><g transform="matrix(1.0014274,0,0,1.0014274,8.9638086,1015.6704)"/><g transform="translate(-98.086079,-6.0745477)"/></g><g transform="translate(-3.0900424)"><circle transform="matrix(3.0928621,0,0,3.0928621,266.18831,49.377305)" cx="29.826674" cy="9.6100454" r="6.283854" fill="#1977f3" stroke-width=".264583" stroke-linecap="round" stroke-linejoin="round"/><circle transform="matrix(3.0928621,0,0,3.0928621,266.18831,49.377305)" cx="30.062912" cy="24.606249" r="6.283854" fill="#1da1f2" stroke-width=".264583" stroke-linecap="round" stroke-linejoin="round"/><circle transform="matrix(3.0928621,0,0,3.0928621,266.18831,49.377305)" cx="29.779428" cy="39.6497" r="6.283854" fill="#cb2027" stroke-width=".264583" stroke-linecap="round" stroke-linejoin="round"/><path transform="matrix(3.0928621,0,0,3.0928621,266.18831,49.377305)" d="M 31.177932,8.987794 H 30.302656 V 8.4137374 c 0,-0.2155857 0.142882,-0.2658511 0.24352,-0.2658511 0.100404,0 0.617675,0 0.617675,0 V 7.2001345 l -0.850663,-0.00344 c -0.944319,0 -1.159217,0.706873 -1.159217,1.1592271 v 0.631739 h -0.546119 v 0.9766166 h 0.546119 c 0,1.2533288 0,2.7634498 0,2.7634498 h 1.148685 c 0,0 0,-1.525013 0,-2.7634498 h 0.775099 z" fill="#fff" stroke-width=".11449"/><path transform="matrix(3.0928621,0,0,3.0928621,266.18831,49.377305)" d="m 33.029869,23.135836 c -0.19071,0.0848 -0.395953,0.14195 -0.611304,0.16754 0.21988,-0.13163 0.388475,-0.34014 0.467981,-0.58887 -0.205663,0.12205 -0.433335,0.21061 -0.675856,0.25842 -0.19408,-0.20682 -0.47072,-0.33614 -0.776845,-0.33614 -0.587715,0 -1.064226,0.47651 -1.064226,1.06433 0,0.0833 0.0094,0.16449 0.02759,0.24253 -0.884573,-0.0445 -1.668895,-0.46809 -2.193847,-1.11204 -0.09162,0.15711 -0.144059,0.33993 -0.144059,0.53516 0,0.36921 0.187866,0.69503 0.473457,0.88584 -0.174388,-0.006 -0.33856,-0.0535 -0.482093,-0.13321 -1.05e-4,0.004 -1.05e-4,0.009 -1.05e-4,0.0135 0,0.51558 0.366888,0.94565 0.853825,1.04359 -0.0893,0.0243 -0.183339,0.0373 -0.280431,0.0373 -0.06866,0 -0.135319,-0.007 -0.200293,-0.0192 0.135529,0.42281 0.528533,0.73062 0.994197,0.73916 -0.364254,0.28548 -0.823074,0.45565 -1.321806,0.45565 -0.08582,0 -0.170596,-0.005 -0.253893,-0.015 0.471141,0.30213 1.030528,0.4782 1.631512,0.4782 1.957751,0 3.02819,-1.62172 3.02819,-3.02819 0,-0.0461 -9.26e-4,-0.0921 -0.003,-0.13785 0.207874,-0.14975 0.388369,-0.33729 0.530955,-0.55075 z" fill="#fff" stroke-width=".105306"/><path transform="matrix(3.0928621,0,0,3.0928621,266.18831,49.377305)" d="m 32.481959,40.008779 c 0,1.461609 -1.184224,2.645833 -2.645833,2.645833 -0.273118,0 -0.535568,-0.04161 -0.783081,-0.118423 0.107753,-0.176033 0.26885,-0.464087 0.328595,-0.693464 0.03201,-0.123757 0.164298,-0.629452 0.164298,-0.629452 0.08642,0.164297 0.338197,0.304058 0.605981,0.304058 0.798017,0 1.373059,-0.734006 1.373059,-1.646178 0,-0.873765 -0.713734,-1.527756 -1.631241,-1.527756 -1.141549,0 -1.748597,0.766012 -1.748597,1.601369 0,0.38834 0.206972,0.871632 0.536634,1.025261 0.05014,0.02347 0.07681,0.0128 0.08855,-0.03521 0.0085,-0.03627 0.05334,-0.216574 0.07361,-0.29979 0.0064,-0.02667 0.0032,-0.05014 -0.01814,-0.07575 -0.107754,-0.133359 -0.195237,-0.376605 -0.195237,-0.603848 0,-0.583577 0.441683,-1.14795 1.194892,-1.14795 0.649723,0 1.105276,0.44275 1.105276,1.07647 0,0.715869 -0.361669,1.211962 -0.832157,1.211962 -0.259249,0 -0.454486,-0.21444 -0.391541,-0.477957 0.07468,-0.314726 0.218708,-0.65399 0.218708,-0.881233 0,-0.202705 -0.108821,-0.372337 -0.334997,-0.372337 -0.26565,0 -0.479024,0.274185 -0.479024,0.642255 0,0.234711 0.07895,0.392607 0.07895,0.392607 0,0 -0.261383,1.10741 -0.309392,1.314382 -0.05334,0.22831 -0.03201,0.550504 -0.0096,0.75961 -0.983652,-0.385139 -1.681384,-1.343187 -1.681384,-2.464465 0,-1.46161 1.184224,-2.645834 2.645833,-2.645834 1.46161,0 2.645834,1.184224 2.645834,2.645834 z" fill="#fff" stroke-width=".0106687"/><g transform="matrix(3.0884537,0,0,3.0884537,238.504,-3087.4736)"><rect width=".35240957" height="3.8542066" x="24.022905" y="1037.0552" ry=".34485009" fill="#d8d9d9" stroke="#d8d9d9" stroke-width="1.14836" stroke-linejoin="round"/><rect width="3.7135348" height=".21173811" x="22.38773" y="1039.0204" ry=".10586905" fill="#d8d9d9" stroke="#d8d9d9" stroke-width="1.28903" stroke-linejoin="round"/></g><path d="m 265.06397,99.794091 a 10.02097,10.175139 0 0 0 -10.02101,10.175079 10.02097,10.175139 0 0 0 1.80363,5.80292 c -12.83373,6.15447 -10.74544,28.34559 -10.74544,28.34559 l 39.23604,-0.15429 c 0,0 1.57538,-21.56084 -12.20698,-27.97567 a 10.02097,10.175139 0 0 0 1.95476,-6.01855 10.02097,10.175139 0 0 0 -10.021,-10.175079 z" fill="url(#b)" stroke="#ffb200" stroke-width="2.15836" stroke-linecap="round" stroke-linejoin="round"/></g></g></g></g></g></g></svg>