<?xml version="1.0" encoding="UTF-8" standalone="no"?><svg xmlns:svg="http://www.w3.org/2000/svg" xmlns="http://www.w3.org/2000/svg" xmlns:xlink="http://www.w3.org/1999/xlink" width="250" height="100" viewBox="0 0 66.145832 26.458334"><defs><linearGradient id="a"><stop offset="0" stop-color="#ff9a00"/><stop offset="1" stop-color="#ffde00" stop-opacity="0"/></linearGradient><linearGradient gradientUnits="userSpaceOnUse" y2="12.594259" x2="40.057613" y1="23.996321" x1="21.299368" id="b" xlink:href="#a"/></defs><g><rect height="26.458334" width="66.145836" fill="#fff0e0" stroke-width="2.25865" stroke-linejoin="round"/><g transform="matrix(0.26458333,0,0,0.26458333,27.8605,6.2116679)"><path fill="none" d="M 0,0 H 48 V 48 H 0 Z"/><path fill="url(#b)" d="m 39.189559,31.329263 -3.588722,-1.983862 c 0.362242,-1.870961 0.362242,-3.790309 0,-5.66127 l 3.588722,-1.983865 c 0.412787,-0.225804 0.59812,-0.693544 0.463333,-1.129028 -0.93509,-2.870955 -2.527269,-5.467721 -4.608054,-7.629002 -0.32012,-0.330645 -0.842423,-0.41129 -1.246786,-0.185483 l -3.588721,1.983863 c -1.507937,-1.24193 -3.243328,-2.201605 -5.121932,-2.830634 V 7.9503199 c 0,-0.451612 -0.328544,-0.846772 -0.791877,-0.943545 -3.091692,-0.661288 -6.259204,-0.629029 -9.199254,0 -0.46334,0.09677 -0.79188,0.491933 -0.79188,0.943545 v 3.9677271 c -1.87018,0.637093 -3.60557,1.596767 -5.1219297,2.830634 l -3.5803,-1.983865 c -0.41279,-0.225805 -0.92667,-0.153225 -1.24679,0.185484 -2.0807801,2.153217 -3.67296007,4.749983 -4.60805007,7.629004 -0.14321,0.435483 0.0506,0.903223 0.46333,1.129027 l 3.58872007,1.983865 c -0.36224,1.870959 -0.36224,3.790307 0,5.661268 l -3.58872007,1.983864 c -0.41278,0.225805 -0.59812,0.693547 -0.46333,1.129028 0.93509,2.870957 2.52726997,5.467721 4.60805007,7.629004 0.32012,0.330643 0.84243,0.411288 1.24679,0.185483 l 3.58872,-1.983864 c 1.5079397,1.241931 3.2433297,2.201606 5.1219297,2.830636 v 3.967727 c 0,0.451611 0.32855,0.846771 0.79188,0.943544 3.09169,0.661288 6.259202,0.62903 9.199258,0 0.463333,-0.09677 0.791878,-0.491933 0.791878,-0.943544 v -3.967727 c 1.870179,-0.637095 3.60557,-1.596768 5.121931,-2.830636 l 3.588721,1.983864 c 0.412788,0.225805 0.926666,0.153225 1.246786,-0.185483 2.080785,-2.153217 3.672964,-4.749981 4.608054,-7.629004 0.126363,-0.443546 -0.05897,-0.911286 -0.471757,-1.137093 z m -19.493671,1.637091 c -3.71508,0 -6.73938,-2.89515 -6.73938,-6.451589 0,-3.556437 3.0243,-6.451588 6.73938,-6.451588 3.71509,0 6.739388,2.895151 6.739388,6.451588 0,3.556439 -3.024298,6.451589 -6.739388,6.451589 z" stroke-width=".0824237"/></g></g><g/></svg>