<?xml version="1.0" encoding="UTF-8" standalone="no"?><svg xmlns:svg="http://www.w3.org/2000/svg" xmlns="http://www.w3.org/2000/svg" xmlns:xlink="http://www.w3.org/1999/xlink" width="250" height="100" viewBox="0 0 66.145831 26.458334"><g><g><g transform="translate(0,-1.0583333)"><g transform="matrix(0.75954056,0,0,0.75954056,7.4789999,3.3810534)"><g transform="translate(7.2949405,-27.403276)"><g transform="matrix(0.80000002,0,0,0.80000002,-12.794494,28.068511)"><circle r="6.283854" cy="11.216444" cx="27.261532" fill="#1977f3" stroke-width=".264583" stroke-linecap="round" stroke-linejoin="round"/><path d="m 28.714757,10.665253 h -0.910002 v -0.596832 c 0,-0.2241387 0.148551,-0.2763983 0.253181,-0.2763983 0.104388,0 0.642182,0 0.642182,0 V 8.80667 L 27.815705,8.80309 c -0.981783,0 -1.205207,0.7349174 -1.205207,1.205218 v 0.656802 h -0.567786 v 1.015363 h 0.567786 c 0,1.303053 0,2.873087 0,2.873087 h 1.194257 c 0,0 0,-1.585516 0,-2.873087 h 0.80585 z" fill="#fff" stroke-width=".119033"/></g><g transform="matrix(0.80000002,0,0,0.80000002,-1.2945684,16.071547)"><circle r="6.283854" cy="26.212648" cx="27.49777" fill="#1da1f2" stroke-width=".264583" stroke-linecap="round" stroke-linejoin="round"/><path d="m 30.464729,24.742235 c -0.19071,0.0848 -0.395953,0.14195 -0.611304,0.16754 0.21988,-0.13163 0.388475,-0.34014 0.467981,-0.58887 -0.205663,0.12205 -0.433335,0.21061 -0.675856,0.25842 -0.19408,-0.20682 -0.47072,-0.33614 -0.776845,-0.33614 -0.587715,0 -1.064226,0.47651 -1.064226,1.06433 0,0.0833 0.0094,0.16449 0.02759,0.24253 -0.884573,-0.0445 -1.668895,-0.46809 -2.193847,-1.11204 -0.09162,0.15711 -0.144059,0.33993 -0.144059,0.53516 0,0.36921 0.187866,0.69503 0.473457,0.88584 -0.174388,-0.006 -0.33856,-0.0535 -0.482093,-0.13321 -1.05e-4,0.004 -1.05e-4,0.009 -1.05e-4,0.0135 0,0.51558 0.366888,0.94565 0.853825,1.04359 -0.0893,0.0243 -0.183339,0.0373 -0.280431,0.0373 -0.06866,0 -0.135319,-0.007 -0.200293,-0.0192 0.135529,0.42281 0.528533,0.73062 0.994197,0.73916 -0.364254,0.28548 -0.823074,0.45565 -1.321806,0.45565 -0.08582,0 -0.170596,-0.005 -0.253893,-0.015 0.471141,0.30213 1.030528,0.4782 1.631512,0.4782 1.957751,0 3.02819,-1.62172 3.02819,-3.02819 0,-0.0461 -9.26e-4,-0.0921 -0.003,-0.13785 0.207874,-0.14975 0.388369,-0.33729 0.530955,-0.55075 z" fill="#fff" stroke-width=".105306"/></g><g transform="matrix(0.80000002,0,0,0.80000002,10.479387,4.0367859)"><circle r="6.283854" cy="41.2561" cx="27.214287" fill="#cb2027" stroke-width=".264583" stroke-linecap="round" stroke-linejoin="round"/><path d="m 29.916819,41.615178 c 0,1.461609 -1.184224,2.645833 -2.645833,2.645833 -0.273118,0 -0.535568,-0.04161 -0.783081,-0.118423 0.107753,-0.176033 0.26885,-0.464087 0.328595,-0.693464 0.03201,-0.123757 0.164298,-0.629452 0.164298,-0.629452 0.08642,0.164297 0.338197,0.304058 0.605981,0.304058 0.798017,0 1.373059,-0.734006 1.373059,-1.646178 0,-0.873765 -0.713734,-1.527756 -1.631241,-1.527756 -1.141549,0 -1.748597,0.766012 -1.748597,1.601369 0,0.38834 0.206972,0.871632 0.536634,1.025261 0.05014,0.02347 0.07681,0.0128 0.08855,-0.03521 0.0085,-0.03627 0.05334,-0.216574 0.07361,-0.29979 0.0064,-0.02667 0.0032,-0.05014 -0.01814,-0.07575 -0.107754,-0.133359 -0.195237,-0.376605 -0.195237,-0.603848 0,-0.583577 0.441683,-1.14795 1.194892,-1.14795 0.649723,0 1.105276,0.44275 1.105276,1.07647 0,0.715869 -0.361669,1.211962 -0.832157,1.211962 -0.259249,0 -0.454486,-0.21444 -0.391541,-0.477957 0.07468,-0.314726 0.218708,-0.65399 0.218708,-0.881233 0,-0.202705 -0.108821,-0.372337 -0.334997,-0.372337 -0.26565,0 -0.479024,0.274185 -0.479024,0.642255 0,0.234711 0.07895,0.392607 0.07895,0.392607 0,0 -0.261383,1.10741 -0.309392,1.314382 -0.05334,0.22831 -0.03201,0.550504 -0.0096,0.75961 -0.983652,-0.385139 -1.681384,-1.343187 -1.681384,-2.464465 0,-1.46161 1.184224,-2.645834 2.645833,-2.645834 1.46161,0 2.645834,1.184224 2.645834,2.645834 z" fill="#fff" stroke-width=".0106687"/></g><g transform="translate(-1.5875,7.1059523)"><g transform="matrix(0.80000002,0,0,0.80000002,23.60461,-3.0691664)"><circle cx="27.214287" cy="41.2561" r="6.283854" fill="#60b82d" stroke-width=".264583" stroke-linecap="round" stroke-linejoin="round"/><g transform="matrix(0.05879629,0,0,0.05879629,24.975961,38.557113)" fill="#fffdfd"><g><path d="M 90,43.8 C 90,68 70.2,87.6 45.8,87.6 c -7.7,0 -15,-2 -21.4,-5.5 L 0,90 8,66.5 C 4,59.9 1.7,52.1 1.7,43.9 1.6,19.6 21.4,0 45.8,0 70.2,0 90,19.6 90,43.8 Z M 45.8,7 C 25.3,7 8.7,23.5 8.7,43.8 c 0,8.1 2.6,15.5 7.1,21.6 l -4.6,13.7 14.3,-4.5 c 5.9,3.9 12.9,6.1 20.4,6.1 C 66.3,80.7 83,64.2 83,43.8 83,23.4 66.3,7 45.8,7 Z m 22.3,46.9 c -0.3,-0.4 -1,-0.7 -2.1,-1.3 -1.1,-0.5 -6.4,-3.1 -7.4,-3.5 -1,-0.4 -1.7,-0.5 -2.4,0.5 -0.7,1.1 -2.8,3.5 -3.4,4.2 -0.6,0.7 -1.3,0.8 -2.3,0.3 -1.1,-0.5 -4.6,-1.7 -8.7,-5.3 -3.2,-2.8 -5.4,-6.4 -6,-7.4 -0.6,-1.1 -0.1,-1.7 0.5,-2.2 0.5,-0.5 1.1,-1.3 1.6,-1.9 0.5,-0.6 0.7,-1.1 1.1,-1.8 0.4,-0.7 0.2,-1.3 -0.1,-1.9 -0.3,-0.5 -2.4,-5.8 -3.3,-8 -0.9,-2.1 -1.8,-1.8 -2.4,-1.8 -0.6,0 -1.4,-0.1 -2.1,-0.1 -0.7,0 -1.9,0.3 -2.9,1.3 -1,1.1 -3.8,3.7 -3.8,9 0,5.3 3.9,10.4 4.4,11.1 0.5,0.7 7.5,11.9 18.5,16.2 11,4.3 11,2.9 13,2.7 2,-0.2 6.4,-2.6 7.3,-5.1 0.8,-2.4 0.8,-4.5 0.5,-5 z"/></g></g></g></g></g><circle r="2.5557649" cy="4.929359" cx="19.205139" fill="#ff0e00" stroke-width=".264583" stroke-linejoin="round"/><text y="6.1821856" x="18.119358" style="line-height:1.25" font-size="7.76111" font-family="sans-serif" letter-spacing="0" word-spacing="0" fill="#fff" stroke-width=".264583"><tspan y="6.1821856" x="18.119358" font-size="3.52778">5</tspan></text><g transform="matrix(1.1851851,0,0,1.1851851,7.1514505,-19.796147)"><rect width="7.1437507" height="7.1437507" x="4.3467236" y="31.787796" fill="#0274b3" stroke-width=".198045" stroke-linecap="round" stroke-linejoin="round"/><g transform="matrix(0.19020233,0,0,0.19020233,5.7092139,33.137945)" fill="#fff"><g><path d="m 5.366,2.973 c 0,1.376 -1.035,2.479 -2.699,2.479 H 2.636 C 1.034,5.453 0,4.348 0,2.973 0,1.564 1.067,0.491 2.698,0.491 4.331,0.49 5.336,1.564 5.366,2.973 Z M 0.28,21.766 H 5.052 V 7.413 H 0.28 Z M 16.764,7.077 c -2.531,0 -3.664,1.39 -4.301,2.37 v 0.046 h -0.031 c 0.012,-0.014 0.023,-0.03 0.031,-0.046 V 7.414 H 7.692 c 0.062,1.345 0,14.353 0,14.353 h 4.771 v -8.016 c 0,-0.432 0.029,-0.855 0.157,-1.164 0.346,-0.854 1.132,-1.747 2.446,-1.747 1.729,0 2.42,1.319 2.42,3.247 v 7.68 h 4.771 V 13.538 C 22.258,9.126 19.902,7.077 16.764,7.077 Z"/></g><g/><g/><g/><g/><g/><g/><g/><g/><g/><g/><g/><g/><g/><g/><g/></g></g><g transform="matrix(1.1851851,0,0,1.1851851,10.326448,-19.796147)"><rect width="7.1437507" height="7.1437507" x="11.490477" y="31.787796" fill="#ef4056" stroke-width=".198045" stroke-linecap="round" stroke-linejoin="round"/><g transform="matrix(0.00826823,0,0,0.00826823,12.897852,33.520265)" fill="#fffbfb"><g><g><path d="M 480,32 H 32 C 14.368,32 0,46.368 0,64 v 176 c 0,132.352 107.648,240 240,240 h 32 C 404.352,480 512,372.352 512,240 V 64 C 512,46.368 497.664,32 480,32 Z m -73.376,182.624 -128,128 C 272.384,348.864 264.192,352 256,352 c -8.192,0 -16.384,-3.136 -22.624,-9.376 l -128,-128 c -12.512,-12.512 -12.512,-32.736 0,-45.248 12.512,-12.512 32.736,-12.512 45.248,0 L 256,274.752 361.376,169.376 c 12.512,-12.512 32.736,-12.512 45.248,0 12.512,12.512 12.512,32.736 0,45.248 z"/></g></g><g/><g/><g/><g/><g/><g/><g/><g/><g/><g/><g/><g/><g/><g/><g/></g></g><path d="m 47.384593,18.181847 v 1.887739 0.33383 3.214791 c -0.0097,0.07138 -0.01654,0.143949 -0.01654,0.218075 v 0.61805 c 0,0.883777 0.711474,1.595253 1.595251,1.595253 h 1.135848 c 0.111964,0 0.221258,-0.01185 0.326595,-0.03359 h 2.413289 0.626319 1.887223 v -1.887739 -0.45062 -3.608049 c 0,-1.045723 -0.841498,-1.887739 -1.887223,-1.887739 h -3.683496 -0.50953 z" fill="#e61b2e" stroke-width=".264583" stroke-linecap="round" stroke-linejoin="round"/><g transform="matrix(0.00803905,0,0,0.00803905,36.785334,20.198548)" fill="#f9ffed"><g><g><path d="M 329.956,399.834 H 182.044 c -9.425,0 -17.067,7.641 -17.067,17.067 0,9.426 7.641,17.067 17.067,17.067 h 147.911 c 9.425,0 17.067,-7.641 17.067,-17.067 0,-9.426 -7.641,-17.067 -17.066,-17.067 z"/></g></g><g><g><path d="M 329.956,346.006 H 182.044 c -9.425,0 -17.067,7.641 -17.067,17.067 0,9.426 7.641,17.067 17.067,17.067 h 147.911 c 9.425,0 17.067,-7.641 17.067,-17.067 0,-9.426 -7.641,-17.067 -17.066,-17.067 z"/></g></g><g><g><g transform="translate(131.64905)"><path transform="matrix(124.39281,0,0,124.39281,-3670.7438,-4759.9914)" d="m 27.257814,35.832563 v 2.001728 0.353988 3.408914 c -0.01029,0.07569 -0.01754,0.152642 -0.01754,0.231244 v 0.655371 c 0,0.937144 0.754436,1.691581 1.691581,1.691581 h 1.204435 c 0.118724,0 0.234619,-0.01257 0.346316,-0.03562 h 2.559014 0.66414 2.001181 v -2.00173 -0.47783 -3.825919 c 0,-1.108869 -0.892311,-2.001728 -2.001181,-2.001728 h -3.90592 -0.540297 z" fill="#6d9f00" stroke-width=".28056" stroke-linecap="round" stroke-linejoin="round"/><path d="M 472.178,133.907 H 417.875 V 35.132 c 0,-9.425 -7.641,-17.067 -17.067,-17.067 H 111.192 c -9.425,0 -17.067,7.641 -17.067,17.067 v 98.775 H 39.822 C 17.864,133.907 0,151.772 0,173.73 v 171.702 c 0,21.958 17.864,39.822 39.822,39.822 h 54.306 v 91.614 c 0,9.425 7.641,17.067 17.067,17.067 h 289.61 c 9.425,0 17.067,-7.641 17.067,-17.067 v -91.614 h 54.306 C 494.136,385.254 512,367.39 512,345.432 V 173.73 c 0,-21.957 -17.864,-39.823 -39.822,-39.823 z M 128.258,52.199 h 255.483 v 81.708 H 128.258 Z m 255.48,407.602 H 128.262 c 0,-3.335 0,-135.503 0,-139.628 h 255.477 c -10e-4,4.229 -10e-4,136.421 -10e-4,139.628 z m 17.07,-225.679 h -43.443 c -9.425,0 -17.067,-7.641 -17.067,-17.067 0,-9.426 7.641,-17.067 17.067,-17.067 h 43.443 c 9.425,0 17.067,7.641 17.067,17.067 0,9.426 -7.641,17.067 -17.067,17.067 z"/></g></g></g><g/><g/><g/><g/><g/><g/><g/><g/><g/><g/><g/><g/><g/><g/><g/></g><path d="m 51.606158,22.08464 c -0.0397,-0.127033 -0.03891,-0.372365 -0.01588,-0.372365 0.0667,0 0.06035,0.292969 0.01588,0.372365 z m -0.01349,0.374746 c -0.06114,0.160378 -0.137354,0.343782 -0.225483,0.497808 0.145293,-0.05557 0.309641,-0.136559 0.499396,-0.173875 -0.100832,-0.07622 -0.197694,-0.185786 -0.273913,-0.323933 z m -0.747111,0.990852 c 0,0.0064 0.104798,-0.04287 0.277091,-0.319166 -0.0532,0.05003 -0.231041,0.194517 -0.277091,0.319166 z m 1.285411,-2.128588 h 1.079777 v 2.604169 c 0,0.105595 -0.08495,0.190548 -0.190548,0.190548 h -2.667691 c -0.105595,0 -0.190548,-0.08495 -0.190548,-0.190548 v -3.683946 c 0,-0.105595 0.08495,-0.190548 0.190548,-0.190548 h 1.587909 v 1.079776 c 0,0.104798 0.08575,0.190549 0.190548,0.190549 z m -0.06352,1.364012 c -0.158792,-0.09687 -0.264387,-0.230247 -0.339019,-0.427147 0.03573,-0.146881 0.0921,-0.369982 0.04923,-0.509718 -0.03732,-0.233422 -0.336637,-0.210398 -0.37951,-0.05399 -0.0397,0.145293 -0.0032,0.350132 0.06431,0.611343 -0.0921,0.219133 -0.227864,0.512894 -0.323934,0.681213 -7.91e-4,0 -7.91e-4,6.89e-4 -0.0016,6.89e-4 -0.215162,0.110362 -0.58435,0.353313 -0.432705,0.539889 0.04446,0.05478 0.127032,0.07939 0.1707,0.07939 0.142118,0 0.283442,-0.142913 0.485106,-0.490663 0.204839,-0.06749 0.429528,-0.151647 0.627223,-0.184197 0.172288,0.09368 0.373952,0.154819 0.508131,0.154819 0.231834,0 0.247713,-0.254064 0.156408,-0.344574 -0.11036,-0.107979 -0.431117,-0.07702 -0.58435,-0.05717 z M 53.155163,20.884975 52.377089,20.1069 c -0.03573,-0.03572 -0.08416,-0.05557 -0.134972,-0.05557 h -0.04764 v 1.01626 h 1.016261 v -0.04843 c 0,-0.05002 -0.01985,-0.09846 -0.05557,-0.134177 z m -0.58832,2.026965 c 0.03256,-0.02144 -0.01985,-0.09448 -0.339811,-0.07145 0.294557,0.125445 0.339811,0.07145 0.339811,0.07145 z" fill="#fff" stroke-width=".00793954"/></g></g></g></g></svg>