<?xml version="1.0" encoding="UTF-8" standalone="no"?><svg xmlns:svg="http://www.w3.org/2000/svg" xmlns="http://www.w3.org/2000/svg" xmlns:xlink="http://www.w3.org/1999/xlink" width="250" height="100" viewBox="0 0 66.145832 26.458334"><defs><linearGradient xlink:href="#a" id="b" gradientUnits="userSpaceOnUse" x1="31.456219" y1="279.36444" x2="42.209198" y2="265.73569"/><linearGradient id="a"><stop offset="0" stop-color="#00bfff"/><stop offset="1" stop-color="#70f7f9"/></linearGradient><linearGradient xlink:href="#a" id="f" gradientUnits="userSpaceOnUse" x1="31.456219" y1="279.36444" x2="42.209198" y2="265.73569"/><linearGradient xlink:href="#a" id="e" gradientUnits="userSpaceOnUse" x1="31.456219" y1="279.36444" x2="42.209198" y2="265.73569"/><linearGradient xlink:href="#a" id="d" gradientUnits="userSpaceOnUse" x1="31.456219" y1="279.36444" x2="42.209198" y2="265.73569"/><linearGradient xlink:href="#a" id="c" gradientUnits="userSpaceOnUse" x1="31.456219" y1="279.36444" x2="42.209198" y2="265.73569"/><linearGradient xlink:href="#a" id="g" gradientUnits="userSpaceOnUse" x1="31.456219" y1="279.36444" x2="42.209198" y2="265.73569"/><linearGradient xlink:href="#a" id="m" gradientUnits="userSpaceOnUse" x1="31.456219" y1="279.36444" x2="42.209198" y2="265.73569"/><linearGradient xlink:href="#a" id="l" gradientUnits="userSpaceOnUse" x1="31.456219" y1="279.36444" x2="42.209198" y2="265.73569"/><linearGradient xlink:href="#a" id="k" gradientUnits="userSpaceOnUse" x1="31.456219" y1="279.36444" x2="42.209198" y2="265.73569"/><linearGradient xlink:href="#a" id="n" gradientUnits="userSpaceOnUse" x1="31.456219" y1="279.36444" x2="42.209198" y2="265.73569"/><linearGradient y2="265.73569" x2="42.209198" y1="279.36444" x1="31.456219" gradientUnits="userSpaceOnUse" id="j" xlink:href="#a"/><linearGradient y2="265.73569" x2="42.209198" y1="279.36444" x1="31.456219" gradientUnits="userSpaceOnUse" id="i" xlink:href="#a"/><linearGradient y2="265.73569" x2="42.209198" y1="279.36444" x1="31.456219" gradientUnits="userSpaceOnUse" id="h" xlink:href="#a"/><linearGradient y2="265.73569" x2="42.209198" y1="279.36444" x1="31.456219" gradientUnits="userSpaceOnUse" id="o" xlink:href="#a"/></defs><g><rect height="26.458334" width="66.145836" fill="#e0f9ff" stroke-width="2.25865" stroke-linejoin="round"/><path fill="#99ebff" d="m 9.0378478,8.3263469 c -0.2569985,0 -0.4932063,0.08888 -0.6796691,0.237526 L 7.1931586,7.8357319 a 1.0975531,1.0975531 0 0 0 0,-0.473835 l 1.1650201,-0.72814 c 0.1864628,0.148654 0.4226706,0.237537 0.6796691,0.237537 0.6026989,0 1.0912902,-0.488591 1.0912902,-1.09129 0,-0.602698 -0.4885913,-1.091289 -1.0912902,-1.091289 -0.6026988,0 -1.0912899,0.488591 -1.0912899,1.091289 0,0.08137 0.00898,0.160625 0.025875,0.236913 l -1.1650223,0.72814 c -0.186463,-0.148643 -0.4226703,-0.237526 -0.6796691,-0.237526 -0.6026986,0 -1.0912895,0.488591 -1.0912895,1.091289 0,0.602699 0.4885909,1.09129 1.0912895,1.09129 0.2569988,0 0.4932061,-0.08888 0.6796687,-0.237526 l 1.1650203,0.72814 a 1.0947112,1.0947112 0 0 0 -0.025875,0.236913 c 0,0.6026981 0.4885911,1.0912891 1.0912899,1.0912891 0.6026993,0 1.0912906,-0.488591 1.0912906,-1.0912891 0,-0.6027 -0.4885913,-1.09129 -1.0912906,-1.09129 z" stroke-width=".0113676"/><path d="m 59.643106,20.822489 c -0.256998,0 -0.493206,0.08888 -0.679669,0.237526 l -1.16502,-0.728141 a 1.0975531,1.0975531 0 0 0 0,-0.473835 l 1.16502,-0.72814 c 0.186463,0.148654 0.422671,0.237537 0.679669,0.237537 0.602699,0 1.09129,-0.488591 1.09129,-1.09129 0,-0.602698 -0.488591,-1.091289 -1.09129,-1.091289 -0.602698,0 -1.09129,0.488591 -1.09129,1.091289 0,0.08137 0.009,0.160625 0.02588,0.236913 l -1.165023,0.72814 c -0.186463,-0.148643 -0.42267,-0.237526 -0.679669,-0.237526 -0.602699,0 -1.091289,0.488591 -1.091289,1.091289 0,0.602699 0.48859,1.09129 1.091289,1.09129 0.256999,0 0.493206,-0.08888 0.679669,-0.237526 l 1.16502,0.72814 a 1.0947112,1.0947112 0 0 0 -0.02587,0.236913 c 0,0.602698 0.488592,1.091289 1.09129,1.091289 0.6027,0 1.09129,-0.488591 1.09129,-1.091289 0,-0.6027 -0.48859,-1.09129 -1.09129,-1.09129 z" fill="#99ebff" stroke-width=".0113676"/><path fill="#99ebff" d="m 17.395054,19.593734 h -0.680357 v -0.680357 c 0,-0.09355 -0.07654,-0.170089 -0.17009,-0.170089 h -0.340178 c -0.09355,0 -0.170089,0.07654 -0.170089,0.170089 v 0.680357 h -0.680357 c -0.09355,0 -0.170089,0.07654 -0.170089,0.170089 v 0.340178 c 0,0.09355 0.07654,0.17009 0.170089,0.17009 h 0.680357 v 0.680356 c 0,0.09355 0.07654,0.17009 0.170089,0.17009 h 0.340178 c 0.09355,0 0.17009,-0.07654 0.17009,-0.17009 v -0.680356 h 0.680357 c 0.09355,0 0.170089,-0.07654 0.170089,-0.17009 v -0.340178 c 0,-0.09355 -0.07654,-0.170089 -0.170089,-0.170089 z m -4.252231,0.510267 c 0.751582,0 1.360714,-0.609132 1.360714,-1.360713 0,-0.751582 -0.609132,-1.360714 -1.360714,-1.360714 -0.751582,0 -1.360714,0.609132 -1.360714,1.360714 0,0.751581 0.609132,1.360713 1.360714,1.360713 z m 0.9525,0.340179 h -0.177531 c -0.235999,0.108432 -0.498574,0.170089 -0.774969,0.170089 -0.276395,0 -0.537907,-0.06166 -0.774969,-0.170089 h -0.177531 c -0.788788,0 -1.428749,0.63996 -1.428749,1.428749 v 0.442232 c 0,0.281711 0.228557,0.510268 0.510268,0.510268 h 3.741962 c 0.281711,0 0.510268,-0.228557 0.510268,-0.510268 v -0.442232 c 0,-0.788789 -0.63996,-1.428749 -1.428749,-1.428749 z" stroke-width=".0106306"/><path fill="#99ebff" d="m 51.47464,5.7542239 c 0.759573,0.7603618 0.749148,1.9794135 0.0046,2.7281171 -0.0014,0.00155 -0.003,0.00318 -0.0046,0.00473 l -0.854324,0.8543241 c -0.753509,0.7535099 -1.979426,0.7534079 -2.732821,0 -0.753508,-0.7533821 -0.753508,-1.9794389 0,-2.7328209 L 48.35923,6.1368415 c 0.125097,-0.1250979 0.340534,-0.041955 0.346993,0.1348357 0.0082,0.2253025 0.04864,0.4516605 0.123191,0.6702508 0.02525,0.074015 0.0072,0.1558884 -0.0481,0.2111904 l -0.166378,0.1663775 c -0.356299,0.3562992 -0.367474,0.9364512 -0.01468,1.2962337 0.356274,0.3633295 0.941867,0.3654904 1.300875,0.00644 l 0.854324,-0.8541968 c 0.358396,-0.3583965 0.356896,-0.9376846 0,-1.2945809 -0.04705,-0.046964 -0.09445,-0.08345 -0.131467,-0.1089399 a 0.20388094,0.20388094 0 0 1 -0.08832,-0.1602625 c -0.0051,-0.1343398 0.04257,-0.2727731 0.148719,-0.3789279 L 50.95205,5.5575855 c 0.07019,-0.070189 0.180298,-0.078812 0.261688,-0.022009 a 1.938528,1.938528 0 0 1 0.260899,0.2186278 z m 1.79173,-1.7918186 c -0.753395,-0.7534068 -1.979312,-0.7535086 -2.732821,0 l -0.854324,0.8543249 c -0.0016,0.00155 -0.0032,0.00318 -0.0046,0.00473 -0.744558,0.7487027 -0.754996,1.9677553 0.0046,2.7281163 a 1.938172,1.938172 0 0 0 0.260886,0.2186156 c 0.08139,0.056802 0.191511,0.048171 0.261688,-0.02201 l 0.267663,-0.267675 C 50.575617,7.3723523 50.623214,7.2339182 50.61818,7.0995784 A 0.20388094,0.20388094 0 0 0 50.52986,6.9393167 c -0.03702,-0.025493 -0.08442,-0.061974 -0.131467,-0.1089391 -0.356896,-0.3568971 -0.358397,-0.9361843 0,-1.2945817 L 51.25272,4.6815991 c 0.359007,-0.3590067 0.944587,-0.3568457 1.300874,0.00644 0.35279,0.3597825 0.341628,0.9399345 -0.01468,1.2962337 l -0.166378,0.1663767 c -0.0553,0.055301 -0.07335,0.1371754 -0.0481,0.2111912 0.07455,0.2185903 0.114952,0.4449475 0.123191,0.6702508 0.0064,0.1767893 0.221896,0.2599328 0.346993,0.1348357 l 0.471735,-0.471735 c 0.753521,-0.7533681 0.753521,-1.9794258 1.2e-5,-2.7328078 z" stroke-width=".0127132"/></g><g><g transform="matrix(0.635169,0,0,0.635169,12.219301,-154.84314)" fill="url(#b)"><g transform="translate(0.28314298)" fill="url(#c)"><g transform="translate(8.1655862e-7,0.23004952)" fill="url(#d)"><g transform="translate(0,-0.26543832)" fill="url(#e)"><g transform="translate(0,-0.28314209)" fill="url(#f)"/></g></g></g><g transform="translate(-1.1783727e-6,0.04044381)" fill="url(#g)"/><g transform="matrix(-1,0,0,1,65.380059,8.5831701e-6)" fill="url(#h)"><g transform="translate(8.1655862e-7,0.23004952)" fill="url(#i)"><g transform="translate(0,-0.26543832)" fill="url(#j)"/></g></g><g transform="matrix(-1,0,0,1,65.380059,8.5831701e-6)" fill="url(#k)"><g transform="translate(8.1655862e-7,0.23004952)" fill="url(#l)"><g transform="translate(0,-0.26543832)" fill="url(#m)"><g transform="translate(0,-0.28314209)" fill="url(#n)"><path d="m -271.22993,23.771025 h 0.99325 c 0.27388,0 0.49438,0.220492 0.49438,0.494376 v 3.541535 c 0,0.273884 -0.2205,0.494376 -0.49438,0.494376 h -0.99325 c -0.27388,0 -0.49437,-0.220492 -0.49437,-0.494376 v -3.541535 c 0,-0.273884 0.22049,-0.494376 0.49437,-0.494376 z m 11.60886,0 h 0.99325 c 0.27388,0 0.49437,0.220492 0.49437,0.494376 v 3.541535 c 0,0.273884 -0.22049,0.494376 -0.49437,0.494376 h -0.99325 c -0.27389,0 -0.49438,-0.220492 -0.49438,-0.494376 v -3.541535 c 0,-0.273884 0.22049,-0.494376 0.49438,-0.494376 z m 1.48762,0.74855 v 0.4849 c 0,0.414697 -0.33386,0.748551 -0.74855,0.748551 h -12.09377 c -0.41469,0 -0.74855,-0.333854 -0.74855,-0.748551 v -0.4849 c 0,-0.414697 0.33386,-0.74855 0.74855,-0.74855 h 12.09377 c 0.41469,0 0.74855,0.333853 0.74855,0.74855 z m 1.98199,6.502596 v -1.43294 c 0,-0.28558 -0.22156,-0.454082 -0.49677,-0.377802 l -16.56132,4.590223 c -0.27522,0.07628 -0.49678,0.367598 -0.49678,0.653178 v 1.43294 c 0,0.28558 0.22156,0.454082 0.49678,0.377802 l 16.56132,-4.590223 c 0.27521,-0.07628 0.49677,-0.367598 0.49677,-0.653178 z m -15.07846,10.303718 h 0.99325 c 0.27388,0 0.49438,-0.220492 0.49438,-0.494376 v -3.541535 c 0,-0.273884 -0.2205,-0.494376 -0.49438,-0.494376 h -0.99325 c -0.27388,0 -0.49437,0.220492 -0.49437,0.494376 v 3.541535 c 0,0.273884 0.22049,0.494376 0.49437,0.494376 z m 11.60886,0 h 0.99325 c 0.27388,0 0.49437,-0.220492 0.49437,-0.494376 v -3.541535 c 0,-0.273884 -0.22049,-0.494376 -0.49437,-0.494376 h -0.99325 c -0.27389,0 -0.49438,0.220492 -0.49438,0.494376 v 3.541535 c 0,0.273884 0.22049,0.494376 0.49438,0.494376 z m 1.48762,-0.74855 v -0.4849 c 0,-0.414697 -0.33386,-0.748551 -0.74855,-0.748551 h -12.09377 c -0.41469,0 -0.74855,0.333854 -0.74855,0.748551 v 0.4849 c 0,0.414697 0.33386,0.74855 0.74855,0.74855 h 12.09377 c 0.41469,0 0.74855,-0.333853 0.74855,-0.74855 z" transform="rotate(-90)" fill="url(#o)" stroke-width=".764145"/></g></g></g></g></g></g></svg>