<?xml version="1.0" encoding="UTF-8" standalone="no"?><svg xmlns:svg="http://www.w3.org/2000/svg" xmlns="http://www.w3.org/2000/svg" xmlns:xlink="http://www.w3.org/1999/xlink" width="250" height="100" viewBox="0 0 66.145831 26.458334"><g><g transform="translate(-0.93544334)"><text y="30.661106" x="1.6704345" style="line-height:5.64885px" font-size="3.88056" font-family="sans-serif" letter-spacing="0" word-spacing="0" fill="#d6d6d6" stroke-width=".264583"/><text y="42.354149" x="28.063299" style="line-height:5.64885px" font-size="3.88056" font-family="sans-serif" letter-spacing="0" word-spacing="0" fill="#d6d6d6" stroke-width=".264583"/><g transform="translate(-0.8597052,0.11204452)"><g transform="translate(1.6509641,0.85044609)"><rect y="13.382335" x="15.322048" height="3.5390246" width="33.068405" fill="#e7e7e7" stroke-width=".28848" stroke-linecap="round" stroke-linejoin="round"/><g transform="matrix(0.91590993,0,0,0.91590993,-0.23147659,3.3465564)"><rect width="36.415474" height="7.416729" x="19.737314" y="-.3744382" ry="1.2027129" fill="#4f0000" stroke-width=".264583" stroke-linecap="round" stroke-linejoin="round"/><path d="m 25.038674,2.7763008 h -0.615583 v -0.403734 c 0,-0.151622 0.100485,-0.186973 0.171268,-0.186973 0.07062,0 0.434412,0 0.434412,0 v -0.666555 l -0.598273,-0.0024 c -0.664139,0 -0.815277,0.497145 -0.815277,0.815286 v 0.444302 h -0.384086 v 0.686856 h 0.384086 c 0,0.881466 0,1.943535 0,1.943535 h 0.80787 c 0,0 0,-1.072542 0,-1.943535 h 0.545127 z" fill="#fff" stroke-width=".0805212"/><path d="m 34.112449,2.1537358 c -0.153307,0.06817 -0.318297,0.11411 -0.491412,0.134681 0.176756,-0.105814 0.312285,-0.27343 0.376198,-0.473378 -0.165327,0.09811 -0.348347,0.169304 -0.543304,0.207738 -0.156016,-0.166258 -0.3784,-0.270215 -0.624487,-0.270215 -0.472449,0 -0.855505,0.383055 -0.855505,0.855589 0,0.06696 0.0076,0.132229 0.02218,0.194964 -0.711087,-0.03577 -1.341584,-0.376286 -1.76358,-0.893942 -0.07365,0.126297 -0.115806,0.273261 -0.115806,0.430202 0,0.296799 0.151021,0.558718 0.380601,0.712105 -0.140187,-0.0048 -0.27216,-0.04301 -0.387543,-0.107084 -8.5e-5,0.0032 -8.5e-5,0.0072 -8.5e-5,0.01085 0,0.414463 0.294933,0.760185 0.68637,0.838917 -0.07179,0.01953 -0.147382,0.02998 -0.225432,0.02998 -0.05519,0 -0.10878,-0.0056 -0.161011,-0.01544 0.108949,0.339887 0.424875,0.587328 0.799211,0.594193 -0.292815,0.22949 -0.661649,0.366286 -1.062568,0.366286 -0.06899,0 -0.137138,-0.004 -0.204098,-0.01206 0.378739,0.242875 0.828416,0.384413 1.311533,0.384413 1.573788,0 2.434288,-1.303661 2.434288,-2.434288 0,-0.03706 -7.44e-4,-0.07404 -0.0024,-0.110815 0.167105,-0.12038 0.312201,-0.271139 0.426822,-0.442734 z" fill="#fff" stroke-width=".0846532"/><path d="m 49.599325,3.4820308 c -0.332293,0 -2.044282,-1.274556 -2.044282,-1.274556 v -0.140045 c 0,-0.173526 0.152449,-0.314357 0.340629,-0.314357 h 3.407305 c 0.188349,0 0.340798,0.140831 0.340798,0.314357 l -0.0027,0.157177 c 0,0 -1.693445,1.257424 -2.041729,1.257424 z m 0,0.432239 c 0.364277,0 2.041729,-1.218129 2.041729,-1.218129 l 0.0027,1.886136 c 0,0.173524 -0.152449,0.314356 -0.340798,0.314356 H 47.89565 c -0.188009,0 -0.340628,-0.140832 -0.340628,-0.314356 l 0.0027,-1.886136 c -1.7e-4,0 1.709266,1.218129 2.041559,1.218129 z" clip-rule="evenodd" fill="#fff" fill-rule="evenodd" stroke-width=".163533"/><rect width="2.1497395" height="2.1497395" x="30.493004" y="-22.67025" ry="0" transform="rotate(45)" fill="#4f0000" stroke-width=".264583" stroke-linecap="round" stroke-linejoin="round"/><path d="m 39.532408,4.9349508 h -0.8228 v -2.649672 h 0.8228 z m -0.411843,-3.011112 c -0.263048,0 -0.476498,-0.217927 -0.476498,-0.481034 0,-0.263107 0.21345,-0.47660399 0.476498,-0.47660399 0.263049,0 0.476499,0.21349699 0.476499,0.47660399 0,0.263107 -0.21345,0.481034 -0.476499,0.481034 z m 3.491369,3.011112 h -0.82103 v -1.289844 c 0,-0.307401 -0.0062,-0.701618 -0.427785,-0.701618 -0.427786,0 -0.493327,0.333977 -0.493327,0.679471 v 1.311991 h -0.821915 v -2.649672 h 0.789145 v 0.361439 h 0.01151 c 0.109825,-0.208182 0.378188,-0.42788 0.778517,-0.42788 0.832544,0 0.985767,0.54836 0.985767,1.260609 v 1.455504 z" fill="#fff" stroke-width=".00885783"/></g><rect y="18.969902" x="15.234782" height="2.5598452" width="25.540966" fill="#e7e7e7" stroke-width=".215623" stroke-linecap="round" stroke-linejoin="round"/><rect width="13.724923" height="3.5390248" x="27.629179" y="13.382335" fill="#bcbcbc" stroke-width=".28848" stroke-linecap="round" stroke-linejoin="round"/></g></g></g></g></svg>