<?xml version="1.0" encoding="UTF-8" standalone="no"?><svg xmlns:svg="http://www.w3.org/2000/svg" xmlns="http://www.w3.org/2000/svg" viewBox="0 0 66.145832 26.458334" height="100" width="250"><g><rect height="26.458334" width="66.145836" fill="#e5f7ff" stroke-width="2.74788" stroke-linejoin="round"/></g><g/><g transform="translate(0,-249.37498)"><g transform="translate(-2.817172,-0.19034617)"><g transform="translate(-1.0768462)"><g transform="translate(-0.10161051)"><g transform="translate(0,-0.08334101)"><rect y="258.6445" x="17.328281" height="8.4666662" width="8.4666662" ry="4.2333331" fill="#1da1f2" stroke-width=".23472" stroke-linecap="round" stroke-linejoin="round"/><path d="m 23.585,261.78445 c -0.134067,0.0594 -0.278337,0.0999 -0.429722,0.11772 0.154581,-0.0924 0.273083,-0.23911 0.328974,-0.41396 -0.144574,0.0859 -0.304618,0.14801 -0.475104,0.18175 -0.136425,-0.14532 -0.330898,-0.23629 -0.546094,-0.23629 -0.413141,0 -0.748112,0.33497 -0.748112,0.74817 0,0.0587 0.0065,0.11561 0.01938,0.17044 -0.621824,-0.0312 -1.173173,-0.32906 -1.542196,-0.78172 -0.0644,0.11042 -0.101265,0.23895 -0.101265,0.3762 0,0.25953 0.132073,0.48857 0.332823,0.62271 -0.122602,-0.006 -0.237994,-0.0376 -0.338896,-0.0935 -7.3e-5,0.002 -7.3e-5,0.006 -7.3e-5,0.01 0,0.36242 0.25791,0.66474 0.60021,0.7336 -0.06277,0.0173 -0.128872,0.0263 -0.197133,0.0263 -0.04826,0 -0.09513,-0.004 -0.140796,-0.0134 0.09528,0.29722 0.37154,0.51361 0.698884,0.51959 -0.256058,0.20071 -0.57859,0.32032 -0.929181,0.32032 -0.06033,0 -0.119919,-0.004 -0.178469,-0.0115 0.331196,0.21238 0.724425,0.33615 1.146895,0.33615 1.376227,0 2.128708,-1.14 2.128708,-2.12872 0,-0.0324 -6.35e-4,-0.0648 -0.0019,-0.0968 0.146126,-0.10525 0.273011,-0.23709 0.373242,-0.38715 z" fill="#fff" stroke-width=".0740264"/></g><rect ry=".39289305" y="262.40161" x="28.66321" height=".78578609" width="2.7857862" fill="#e1e1e1" stroke-width=".214214" stroke-linejoin="round"/><g transform="matrix(0.99162562,0,0,0.99162562,21.33184,-20.442387)"><rect ry=".47837946" y="278.36874" x="13.782822" height="14.520201" width="21.870955" fill="#fff" stroke="#1da1f2" stroke-width=".243344" stroke-linecap="round" stroke-linejoin="round"/><path d="m 13.660023,281.05225 h 21.782466 v 0.13364 -0.0668" fill="none" stroke="#3e5b98" stroke-width=".264583"/><path d="m 13.810361,278.77743 c 0.124351,-0.20316 0.293379,-0.29482 0.668174,-0.39788 h 10.30658 l 10.473627,0.0256 0.400903,0.40302 0.116931,3.06264 H 24.785116 13.793657 c -0.304578,-0.90133 -0.0061,-2.05506 0.0167,-3.09338 z" fill="#1da1f2" stroke-width=".0815901" stroke-linecap="round" stroke-linejoin="round"/><rect width="12.289192" height=".81697166" x="19.80607" y="283.41849" ry="0" fill="#e1e1e1" stroke-width=".0586081" stroke-linecap="round" stroke-linejoin="round"/><rect width="7.6428947" height=".36531568" x="19.830486" y="284.76871" ry="0" fill="#e1e1e1" stroke-width=".0309069" stroke-linecap="round" stroke-linejoin="round"/><rect width="7.6428947" height=".36531568" x="19.816807" y="285.7211" ry="0" fill="#e1e1e1" stroke-width=".0309069" stroke-linecap="round" stroke-linejoin="round"/><circle r="1.5111734" cy="284.79425" cx="16.951778" fill="#e1e1e1" stroke-width=".0999239" stroke-linecap="round" stroke-linejoin="round"/><rect width="12.289192" height=".81697166" x="19.794212" y="287.90561" ry="0" fill="#e1e1e1" stroke-width=".0586081" stroke-linecap="round" stroke-linejoin="round"/><rect width="7.6428947" height=".36531568" x="19.818628" y="289.25583" ry="0" fill="#e1e1e1" stroke-width=".0309069" stroke-linecap="round" stroke-linejoin="round"/><rect width="7.6428947" height=".36531568" x="19.804949" y="290.20822" ry="0" fill="#e1e1e1" stroke-width=".0309069" stroke-linecap="round" stroke-linejoin="round"/><circle r="1.5111734" cy="289.28137" cx="16.93992" fill="#e1e1e1" stroke-width=".0999239" stroke-linecap="round" stroke-linejoin="round"/></g></g></g></g></g></svg>